<svg width="55" height="60" viewBox="0 0 55 60" fill="none" xmlns="http://www.w3.org/2000/svg">
<path d="M25.0101 59.9999C11.1974 59.9999 -2.67029e-05 46.5685 -2.67029e-05 30C-2.67029e-05 13.4314 11.1974 0 25.0101 0C38.8228 0 50.0202 13.4314 50.0202 30C50.0202 46.5685 38.8228 59.9999 25.0101 59.9999Z" fill="#2435A0"/>
<path d="M24.8884 0H30.3651V59.9999H24.8884V0Z" fill="#2435A0"/>
<path d="M29.706 60C15.8989 60 4.70599 46.5685 4.70599 30C4.70599 13.4315 15.8989 0 29.706 0C43.5131 0 54.706 13.4315 54.706 30C54.706 46.5685 43.5131 60 29.706 60Z" fill="#0456FB"/>
<path opacity="0.1" d="M30.2463 37.8555C24.6537 33.0931 20.659 27.1705 19.6143 19.8436C18.8768 14.7759 17.5247 8.3038 18.6924 2.86969C21.9496 1.03797 25.637 0 29.4473 0C43.398 0 54.706 13.4937 54.706 30.1013C54.706 36.8786 52.8008 43.1675 49.6051 48.2353C42.5376 46.1593 35.9003 42.6791 30.2463 37.8555Z" fill="white"/>
<path d="M25.706 35.1764C25.706 36.5293 26.5295 37.5882 27.5884 37.5882C28.0589 37.5882 28.5295 37.3529 28.8824 36.8823C29.2354 36.4117 29.4119 35.8235 29.4119 35.1764C29.4119 33.8823 28.5295 32.7646 27.5295 32.7646C27.2942 32.7646 27.0589 32.8235 26.8236 32.9411C26.5883 33.0588 26.4119 33.2352 26.2354 33.4705C26.0589 33.7058 25.9413 33.9411 25.8236 34.2352C25.706 34.5294 25.706 34.8235 25.706 35.1764Z" fill="white"/>
<path d="M31.7646 37.5293C31.9999 37.5293 32.2352 37.4705 32.4704 37.3529C32.7057 37.2352 32.8822 37.0588 33.0587 36.8235C33.2352 36.5882 33.3528 36.3529 33.4705 36.0588C33.5881 35.7646 33.5881 35.4705 33.5881 35.1176C33.5881 34.8235 33.5293 34.4705 33.4705 34.1764C33.3528 33.8823 33.2352 33.5882 33.0587 33.4117C32.8822 33.1764 32.7057 33 32.4704 32.8823C32.2352 32.7647 31.9999 32.7058 31.7646 32.7058C31.294 32.7058 30.8234 32.9999 30.4704 33.4117C30.1175 33.8823 29.941 34.4705 29.8822 35.1176C29.8822 35.4117 29.941 35.7646 29.9999 36.0588C30.1175 36.3529 30.2352 36.647 30.4116 36.8235C30.5881 37.0588 30.7646 37.2352 30.9999 37.3529C31.294 37.4705 31.5293 37.5293 31.7646 37.5293Z" fill="white"/>
<path d="M32.0587 30.3529C32.0587 31 32.2352 31.5882 32.5882 32.0588C32.9411 32.5294 33.4117 32.7647 33.8823 32.7647C34.3528 32.7647 34.8234 32.5294 35.1764 32.0588C35.5293 31.5882 35.7058 31 35.7058 30.3529C35.7058 30.0588 35.647 29.7059 35.5882 29.4118C35.4705 29.1176 35.3529 28.8235 35.1764 28.6471C34.9999 28.4118 34.8234 28.2353 34.5881 28.1176C34.3529 28 34.1176 27.9412 33.8823 27.9412C33.647 27.9412 33.4117 28 33.1764 28.1176C32.9411 28.2353 32.7646 28.4118 32.5882 28.6471C32.4117 28.8823 32.294 29.1176 32.1764 29.4118C32.0588 29.7059 32.0587 30 32.0587 30.3529Z" fill="white"/>
<path d="M27.2353 30.2941C27.2353 30 27.1765 29.647 27.1176 29.3529C27 29.0588 26.8824 28.7646 26.7059 28.5882C26.5294 28.3529 26.353 28.1764 26.1177 28.0588C25.8824 27.9411 25.6471 27.8823 25.4118 27.8823C25.1765 27.8823 24.9412 27.9411 24.7059 28.0588C24.4706 28.1764 24.2941 28.3529 24.1176 28.5882C23.9412 28.8235 23.8235 29.0588 23.7059 29.3529C23.5882 29.647 23.5882 29.9411 23.5882 30.2941C23.5882 30.9411 23.8235 31.5294 24.1765 32C24.5294 32.4706 25 32.7058 25.4706 32.7058C25.9412 32.7058 26.4118 32.4706 26.7647 32C27.1177 31.5294 27.2353 30.9411 27.2353 30.2941Z" fill="white"/>
<path d="M29.9411 25.4705C29.9411 26.1176 30.1764 26.7058 30.4705 27.1764C30.8234 27.647 31.294 27.8823 31.7646 27.9411C32.294 27.9411 32.7646 27.647 33.1175 27.1764C33.4705 26.7058 33.647 26.0588 33.647 25.4117C33.647 24.7646 33.4117 24.1764 33.0587 23.7058C32.7058 23.294 32.2352 22.9999 31.7646 23.0588C30.7646 23.1176 29.9411 24.2352 29.9411 25.4705Z" fill="white"/>
<path d="M25.706 25.4705C25.706 26.1176 25.8824 26.7058 26.2354 27.1764C26.5883 27.647 27.0589 27.8823 27.5295 27.9411C28.5295 27.9999 29.4119 26.8823 29.4119 25.5294C29.4119 25.2352 29.353 24.8823 29.2942 24.5882C29.1766 24.294 29.0589 23.9999 28.8824 23.8235C28.706 23.647 28.5295 23.4117 28.2942 23.294C28.0589 23.1764 27.8236 23.1176 27.5884 23.1176C26.5295 23.0587 25.706 24.1176 25.706 25.4705Z" fill="white"/>
<path d="M22.2354 35.1178C22.2354 35.4707 22.3531 35.8825 22.5884 36.1178C22.8236 36.3531 23.0589 36.5295 23.353 36.5295C23.5295 36.5295 23.6472 36.4707 23.7648 36.4119C23.8825 36.3531 24.0001 36.2354 24.1177 36.0589C24.2354 35.9413 24.2942 35.7648 24.3531 35.5883C24.4119 35.4119 24.4119 35.2354 24.4119 35.0001C24.4119 34.8236 24.353 34.5883 24.2942 34.4119C24.2354 34.2354 24.1178 34.0589 24.0589 33.9413C23.9413 33.8236 23.8236 33.706 23.706 33.6472C23.5883 33.5883 23.4119 33.5295 23.2942 33.5883C23.0001 33.5883 22.706 33.7648 22.5295 34.0589C22.353 34.3531 22.2354 34.7648 22.2354 35.1178Z" fill="white"/>
<path d="M37.0588 35.0587C37.0588 34.8822 37.0588 34.7058 37 34.5293C36.9412 34.3529 36.8824 34.1764 36.7647 34.0587C36.6471 33.9411 36.5294 33.8235 36.4118 33.7646C36.2941 33.7058 36.1177 33.647 36 33.647C35.7059 33.647 35.4118 33.7646 35.2353 34.0587C35 34.3529 34.9412 34.7058 34.8824 35.0587C34.8824 35.2352 34.9412 35.4705 34.9412 35.647C35 35.8234 35.0588 35.9999 35.1765 36.1176C35.2941 36.2352 35.4118 36.3529 35.5294 36.4117C35.6471 36.4705 35.8235 36.5293 35.9412 36.5293C36.0588 36.5293 36.2353 36.4705 36.3529 36.4117C36.4706 36.3529 36.5883 36.2352 36.7059 36.1176C36.8236 35.9999 36.8824 35.8234 36.9412 35.647C37.0588 35.4705 37.1177 35.294 37.0588 35.0587Z" fill="white"/>
<path d="M37.1175 25.5883C37.1175 25.4118 37.1175 25.1765 37.0587 25C36.9999 24.8236 36.941 24.6471 36.8234 24.5294C36.7057 24.4118 36.5881 24.2942 36.4704 24.2353C36.3528 24.1765 36.1763 24.1177 36.0587 24.1177C35.7646 24.1177 35.5293 24.2942 35.294 24.5294C35.1175 24.7647 34.9999 25.1177 34.941 25.4706C34.941 25.6471 34.941 25.8824 34.9999 26.0588C35.0587 26.2353 35.1175 26.4118 35.2352 26.5294C35.3528 26.6471 35.4704 26.7647 35.5881 26.8824C35.7057 26.9412 35.8822 27 35.9999 27C36.1175 27 36.294 26.9412 36.4116 26.8824C36.5293 26.8236 36.6469 26.7059 36.7646 26.5883C36.8822 26.4706 36.9411 26.2942 36.9999 26.1177C37.0587 25.9412 37.1175 25.7647 37.1175 25.5883Z" fill="white"/>
<path d="M28.5881 20.8236C28.5881 21.0001 28.5882 21.1765 28.647 21.353C28.7058 21.5295 28.7646 21.7059 28.8823 21.8236C28.9999 21.9412 29.1176 22.0589 29.2352 22.1177C29.3529 22.1765 29.5293 22.2354 29.647 22.2354C29.8235 22.2354 29.9411 22.1765 30.0587 22.1177C30.1764 22.0589 30.294 21.9412 30.4117 21.7648C30.5293 21.6471 30.5881 21.4707 30.647 21.2942C30.7058 21.1177 30.7058 20.9413 30.7058 20.706C30.7058 20.353 30.5881 20.0001 30.3528 19.7648C30.1764 19.5295 29.8823 19.353 29.5881 19.353C29.4117 19.353 29.294 19.4118 29.1764 19.4706C29.0587 19.5295 28.9411 19.6471 28.8235 19.7648C28.7058 19.8824 28.647 20.0589 28.5881 20.2354C28.647 20.4119 28.5881 20.5883 28.5881 20.8236Z" fill="white"/>
<path d="M30.8235 39.8824C30.8235 39.706 30.8235 39.5295 30.7646 39.3531C30.7058 39.1766 30.647 39.0001 30.5294 38.8824C30.4117 38.7648 30.2941 38.6471 30.1764 38.5883C30.0588 38.5295 29.8823 38.4707 29.7646 38.4707C29.4705 38.4707 29.1764 38.5883 28.9999 38.8824C28.7646 39.1177 28.647 39.4707 28.647 39.8824C28.647 40.6472 29.1764 41.4119 29.7646 41.4119C30.0588 41.4119 30.3529 41.2354 30.5294 41.0001C30.7058 40.6472 30.8235 40.2354 30.8235 39.8824Z" fill="white"/>
<path d="M24.4116 25.4706C24.4116 25.2941 24.3528 25.1176 24.294 24.9412C24.2351 24.7647 24.1763 24.5882 24.0587 24.4706C23.941 24.3529 23.8234 24.2353 23.7057 24.1764C23.5881 24.1176 23.4116 24.0588 23.2939 24.1176C22.9998 24.1176 22.7057 24.2941 22.5292 24.5882C22.3528 24.8823 22.2351 25.2353 22.2351 25.5882C22.2351 25.7647 22.294 25.9412 22.3528 26.1176C22.4116 26.2941 22.5293 26.4706 22.5881 26.5882C22.7057 26.7059 22.8234 26.8235 22.941 26.8823C23.0587 26.9412 23.2351 27 23.3528 26.9412C23.4704 26.9412 23.6469 26.8823 23.7646 26.8235C23.8822 26.7647 23.9998 26.647 24.1175 26.4706C24.2351 26.3529 24.294 26.1765 24.3528 26C24.4116 25.8235 24.4704 25.647 24.4116 25.4706Z" fill="white"/>
<path d="M24.8823 18.353C24.647 18.353 24.4117 18.5295 24.2352 18.7648C24.0588 19.0001 23.9411 19.2942 23.9411 19.6472C23.9411 20.0001 24.0588 20.2942 24.2352 20.5295C24.4117 20.7648 24.647 20.8824 24.8823 20.8824C25.1176 20.8824 25.3529 20.7648 25.5294 20.5295C25.7058 20.2942 25.8235 20.0001 25.8235 19.6472C25.8235 19.2942 25.7058 19.0001 25.5294 18.7648C25.4117 18.4707 25.1764 18.353 24.8823 18.353Z" fill="white"/>
<path d="M19.2353 30.2353C19.2353 30.5294 19.3529 30.8824 19.5294 31.1177C19.7058 31.353 19.9411 31.4706 20.1764 31.4706C20.4117 31.4706 20.647 31.3529 20.8235 31.1765C21 30.9412 21.1176 30.647 21.1176 30.3529C21.1176 30.1765 21.1176 30 21.0588 29.8823C20.9999 29.7059 20.9411 29.5882 20.8823 29.4706C20.8235 29.3529 20.7058 29.2353 20.5882 29.1765C20.4705 29.1176 20.3529 29.0588 20.2353 29.0588C20 29.0588 19.7647 29.1765 19.5882 29.4118C19.3529 29.6471 19.2353 29.9412 19.2353 30.2353Z" fill="white"/>
<path d="M38.2352 30.353C38.2352 30.6471 38.3528 31 38.5293 31.1765C38.7058 31.4118 38.9411 31.5294 39.1764 31.5294C39.4116 31.5294 39.647 31.4118 39.8234 31.1765C39.9999 30.9412 40.1176 30.6471 40.1176 30.2941C40.1176 30 39.9999 29.6471 39.8234 29.4706C39.647 29.2353 39.4116 29.1177 39.1764 29.1177C39.0587 29.1177 38.9411 29.1177 38.8234 29.1765C38.7058 29.2353 38.5881 29.353 38.5293 29.4706C38.4117 29.5882 38.3528 29.7059 38.3528 29.8824C38.3528 30.0588 38.2352 30.2353 38.2352 30.353Z" fill="white"/>
<path d="M34.4116 42.2941C34.6469 42.2941 34.8822 42.1176 35.0587 41.8823C35.2351 41.647 35.3528 41.294 35.3528 40.9999C35.3528 40.7646 35.294 40.5293 35.1763 40.3529C35.0587 40.1764 34.941 39.9999 34.7645 39.9411C34.5881 39.8823 34.4116 39.8234 34.2352 39.8823C34.0587 39.9411 33.8822 40.0588 33.7646 40.2352C33.6469 40.4117 33.5293 40.647 33.5293 40.8823C33.4704 41.1176 33.5293 41.3529 33.5881 41.5882C33.6469 41.8235 33.7646 41.9999 33.941 42.1176C34.0587 42.2352 34.2352 42.2941 34.4116 42.2941Z" fill="white"/>
<path d="M34.4116 20.8824C34.8822 20.8824 35.3528 20.2942 35.3528 19.5883C35.3528 19.2354 35.2351 18.9412 35.0587 18.706C34.8822 18.4707 34.6469 18.353 34.4116 18.353C34.1763 18.353 33.941 18.4707 33.7646 18.706C33.5881 18.9412 33.4704 19.2354 33.5293 19.5883C33.4704 20.2942 33.941 20.8824 34.4116 20.8824Z" fill="white"/>
<path d="M24.8823 42.2352C25.1176 42.2352 25.3529 42.0588 25.5294 41.8235C25.7058 41.5882 25.8235 41.2352 25.8235 40.9411C25.8235 40.647 25.7058 40.2941 25.5294 40.1176C25.3529 39.8823 25.1176 39.7646 24.8823 39.7646C24.647 39.7646 24.4117 39.8823 24.2352 40.1176C24.0588 40.3529 23.9411 40.647 23.9411 40.9411C23.9411 41.2941 24.0588 41.5882 24.2352 41.8235C24.4117 42.0588 24.647 42.2352 24.8823 42.2352Z" fill="white"/>
<path d="M39.0001 22.7646C39.0001 23.0588 39.1177 23.2941 39.2354 23.4705C39.4119 23.647 39.5883 23.7646 39.8236 23.7058C40.0001 23.7058 40.2354 23.5881 40.353 23.4117C40.4707 23.2352 40.5883 22.9999 40.5883 22.7058C40.5883 22.5881 40.5883 22.4117 40.5295 22.2941C40.4707 22.1764 40.4118 22.0587 40.353 21.9411C40.2942 21.8234 40.1766 21.7646 40.1177 21.7058C40.0001 21.647 39.9413 21.647 39.8236 21.647C39.5883 21.647 39.4118 21.7646 39.2942 21.9411C39.1177 22.2352 39.0001 22.4705 39.0001 22.7646Z" fill="white"/>
<path d="M39 37.9411C39 38.0588 39 38.2353 39.0588 38.3529C39.1177 38.4706 39.1765 38.5882 39.2353 38.7058C39.2941 38.8235 39.4117 38.8823 39.4706 38.9411C39.5294 39 39.647 39 39.7647 39C39.9412 39 40.1765 38.8823 40.2941 38.7058C40.4118 38.5294 40.5294 38.2941 40.5294 37.9999C40.5294 37.8823 40.5294 37.7059 40.4706 37.5882C40.4118 37.4706 40.3529 37.3529 40.2941 37.2353C40.2353 37.1176 40.1176 37.0588 40.0588 37C39.9412 36.9412 39.8823 36.9411 39.7647 36.8823C39.647 36.8823 39.5294 36.8823 39.4706 36.9411C39.3529 37 39.2941 37.0588 39.2353 37.1764C39.1765 37.2941 39.1177 37.4117 39.0588 37.5294C39 37.7058 39 37.8235 39 37.9411Z" fill="white"/>
<path d="M28.9412 15.0588C28.9412 15.1765 28.9412 15.353 29 15.4706C29.0588 15.5883 29.0588 15.7059 29.1765 15.8236C29.2353 15.9412 29.3529 16 29.4118 16.0588C29.5294 16.1177 29.5882 16.1177 29.7059 16.1765C29.9412 16.1765 30.1177 16.0589 30.2353 15.8824C30.4118 15.7059 30.4706 15.4118 30.4706 15.1765C30.4706 15.0588 30.4706 14.8824 30.4118 14.7647C30.3529 14.6471 30.2941 14.5294 30.2353 14.4118C30.1765 14.2941 30.0588 14.2353 30 14.1765C29.8824 14.1177 29.8235 14.1177 29.7059 14.1177C29.5882 14.1177 29.5294 14.1177 29.4118 14.1765C29.2941 14.2353 29.2353 14.2942 29.1765 14.353C29.1176 14.4706 29.0588 14.5295 29 14.6471C28.9412 14.7647 28.9412 14.9412 28.9412 15.0588Z" fill="white"/>
<path d="M18.7648 37.9412C18.7648 38.0588 18.7648 38.2353 18.8236 38.3529C18.8824 38.4706 18.9412 38.5882 19.0001 38.7059C19.0589 38.8235 19.1765 38.8823 19.2354 38.9412C19.353 39 19.4118 39 19.5295 39C19.7648 39 19.9412 38.8823 20.0589 38.6471C20.1765 38.4118 20.2942 38.1765 20.2942 37.9412C20.2942 37.8235 20.2354 37.647 20.2354 37.5294C20.1766 37.4117 20.1177 37.2941 20.0589 37.2353C20.0001 37.1764 19.8824 37.0588 19.7648 37.0588C19.6471 37.0588 19.5883 37 19.4706 37C19.353 37 19.2942 37.0588 19.1765 37.0588C19.0589 37.1176 19.0001 37.1765 18.9413 37.2941C18.8824 37.4118 18.8236 37.5294 18.7648 37.647C18.706 37.7647 18.7648 37.8235 18.7648 37.9412Z" fill="white"/>
<path d="M18.7647 22.7058C18.7647 22.9999 18.8823 23.2352 19 23.4117C19.1765 23.5881 19.3529 23.7058 19.5882 23.7058C19.7647 23.7058 20 23.5881 20.1176 23.4117C20.2353 23.2352 20.3529 22.9411 20.2941 22.7058C20.2941 22.5881 20.2941 22.4705 20.2353 22.3529C20.1765 22.2352 20.1176 22.1176 20.0588 21.9999C20 21.8823 19.8823 21.8234 19.8235 21.7646C19.7059 21.7058 19.6471 21.7058 19.5294 21.7058C19.4118 21.7058 19.2941 21.7058 19.2353 21.7646C19.1176 21.8234 19.0588 21.8823 19 21.9999C18.9412 22.1176 18.8823 22.2352 18.8235 22.3529C18.8235 22.4117 18.7647 22.5293 18.7647 22.7058Z" fill="white"/>
<path d="M28.9412 45.5884C28.9412 45.7648 29 46.0001 29.0588 46.1178C29.1177 46.2943 29.2941 46.4119 29.4118 46.4707C29.5294 46.5295 29.7059 46.5295 29.8823 46.5295C30.0588 46.4707 30.1765 46.4119 30.2941 46.2354C30.4118 46.1178 30.4706 45.9413 30.5294 45.706C30.5294 45.5295 30.5294 45.2943 30.4706 45.1178C30.4118 44.9413 30.2941 44.7648 30.1765 44.6472C30.0588 44.5296 29.8823 44.4707 29.7647 44.4707C29.5294 44.4707 29.3529 44.5884 29.2353 44.7648C29.1176 44.9413 28.9412 45.2942 28.9412 45.5884Z" fill="white"/>
<path d="M23.2354 45.6471C23.5883 45.5882 23.8236 45.2941 23.8236 44.8235C23.8236 44.353 23.5883 44 23.2354 44C22.8824 44 22.6471 44.2941 22.6471 44.8235C22.5883 45.2941 22.8236 45.5882 23.2354 45.6471Z" fill="white"/>
<path d="M36.0588 44.0588C35.7058 44.1177 35.4705 44.4118 35.4705 44.8823C35.4705 45 35.4705 45.1176 35.5294 45.1765C35.5882 45.2941 35.5882 45.3529 35.647 45.4118C35.7058 45.4706 35.7647 45.5294 35.8235 45.5882C35.8823 45.6471 35.9999 45.647 36.0588 45.647C36.4117 45.647 36.647 45.3529 36.647 44.8823C36.7058 44.3529 36.4705 44.1177 36.0588 44.0588Z" fill="white"/>
<path d="M16.8234 31.0588C17.1763 31 17.4116 30.7647 17.4116 30.2353C17.4116 29.7059 17.1763 29.4117 16.8234 29.4706C16.7646 29.4706 16.6469 29.4706 16.5881 29.5294C16.5293 29.5882 16.4705 29.647 16.4116 29.7059C16.3528 29.7647 16.294 29.8823 16.294 30C16.294 30.1176 16.2352 30.2353 16.294 30.2941C16.1763 30.7647 16.4116 31.0588 16.8234 31.0588Z" fill="white"/>
<path d="M22.6469 15.8235C22.7057 16.2941 22.8822 16.5882 23.294 16.5882C23.7057 16.5294 23.8822 16.2353 23.8822 15.7647C23.8822 15.2941 23.6469 15 23.2352 15C22.8822 15 22.7057 15.353 22.6469 15.8235Z" fill="white"/>
<path d="M35.5294 15.8235C35.5882 16.2941 35.7647 16.6471 36.1176 16.5882C36.4706 16.5882 36.7059 16.2353 36.7059 15.7647C36.7059 15.2941 36.4706 15 36.1176 15C35.7647 15 35.5294 15.353 35.5294 15.8235Z" fill="white"/>
<path d="M42.5294 29.5881C42.1176 29.647 41.9411 29.8823 41.9411 30.4117C41.9411 30.8823 42.1764 31.2352 42.5294 31.2352C42.8823 31.2352 43.1176 30.9411 43.1176 30.4117C43.1176 29.8823 42.8823 29.5881 42.5294 29.5881Z" fill="white"/>
</svg>
