<svg width="92" height="97" viewBox="0 0 92 97" fill="none" xmlns="http://www.w3.org/2000/svg">
<path d="M38.2454 87.5218C56.0348 92.2885 75.091 78.8543 80.8087 57.5156C86.5263 36.177 76.7403 15.0145 58.9509 10.2479C41.1615 5.4812 22.1052 18.9154 16.3876 40.2541C10.6699 61.5927 20.456 82.7552 38.2454 87.5218Z" fill="#C99103"/>
<path d="M59.1075 10.2899L52.0541 8.3999L31.3486 85.6739L38.402 87.5638L59.1075 10.2899Z" fill="#C99103"/>
<path d="M32.1975 85.9014C49.9797 90.6661 69.0301 77.2303 74.7478 55.8916C80.4655 34.553 70.6852 13.392 52.903 8.6273C35.1208 3.86257 16.0704 17.2984 10.3527 38.637C4.63507 59.9757 14.4153 81.1366 32.1975 85.9014Z" fill="#FBB504"/>
<path opacity="0.15" d="M39.1435 57.1951C47.9897 52.9914 55.1783 46.7423 59.0523 37.6665C61.7509 31.3942 65.7257 23.5254 66.0971 16.1239C62.5343 12.6408 58.1435 10.0315 53.2362 8.71657C35.2691 3.90231 16.0489 17.3785 10.3178 38.7675C7.97898 47.496 8.26237 56.253 10.6293 63.8826C20.448 63.6479 30.1972 61.4561 39.1435 57.1951Z" fill="white"/>
<path d="M53.5793 50.6827C52.9734 49.7048 52.1854 48.9092 51.2671 48.3481C52.1908 47.9762 53.0573 47.3911 53.8126 46.6291C54.636 45.6139 55.2789 44.421 55.6972 43.1323C56.0143 42.3026 57.1317 38.4859 55.467 36.2104C54.2471 34.3972 52.4761 33.5797 49.8548 33.106L51.7128 26.172C50.5062 26.0773 49.3594 26.1131 48.1528 26.0184L46.3806 32.6324C45.4678 32.5021 44.6149 32.5023 43.7021 32.3721L45.4172 25.9714C44.2106 25.8768 43.0638 25.9125 41.8572 25.8179L40.1993 32.0052C37.9031 31.7329 35.5783 31.5673 33.2821 31.2951L32.3103 34.9221C32.9578 34.9813 33.6651 35.1708 34.3126 35.23C34.9887 35.2292 35.6184 35.5199 36.0837 36.0475C36.323 36.569 36.3257 36.9127 36.0684 37.8728L31.9237 53.341C31.8795 53.5415 31.7993 53.7323 31.6889 53.9002C31.5784 54.0681 31.4403 54.2089 31.2842 54.313C31.0645 54.399 30.8364 54.4328 30.6137 54.4125C30.3911 54.3921 30.1786 54.318 29.9892 54.1947C29.3104 53.8985 28.6915 53.7326 28.0127 53.4364C27.3759 54.7521 26.8275 56.0916 26.1906 57.4073C28.3153 58.3196 30.4114 59.3386 32.5361 60.2509L30.9068 66.3316C31.9991 66.8529 32.9743 67.4573 34.0666 67.9786L35.7817 61.578C36.6372 61.9216 37.3759 62.3481 38.2315 62.6917L36.4878 69.199C37.5801 69.7204 38.5553 70.3247 39.6476 70.846L41.5056 63.912C42.1899 64.1798 42.8886 64.4052 43.599 64.5873C45.3768 65.1665 47.3121 65.0878 49.156 64.3612C51.6184 63.306 52.8894 60.3308 53.8068 57.2609C54.195 56.168 54.3761 55.0091 54.3367 53.8703C54.2973 52.7314 54.0384 51.6419 53.5793 50.6827ZM42.473 36.9592C42.473 36.9592 43.5912 37.0301 44.6808 37.2077C45.8517 37.322 46.9725 37.6999 47.9835 38.3214C48.5738 38.616 49.0347 39.1602 49.2828 39.8558C49.531 40.5514 49.55 41.3524 49.3364 42.114C49.1997 42.7792 48.9126 43.4043 48.5067 43.9208C48.1009 44.4373 47.5919 44.8252 47.0356 45.0419C45.7885 45.4833 44.4969 45.5689 43.2729 45.2914C42.0065 45.0664 40.415 44.6399 40.415 44.6399L42.473 36.9592ZM44.7005 58.7082C43.3404 58.9083 41.984 58.8162 40.6984 58.4363C39.1953 58.0335 37.0706 57.1212 37.0706 57.1212L39.3573 48.587C40.6408 48.8689 41.9009 49.2447 43.1307 49.7124C44.384 50.1786 45.535 50.913 46.5298 51.8809C46.9658 52.3586 47.2662 52.9845 47.3965 53.6869C47.5268 54.3892 47.4818 55.1395 47.2665 55.8514C47.1248 56.5577 46.8003 57.2142 46.3396 57.7272C45.8788 58.2402 45.3051 58.5835 44.7005 58.7082Z" fill="white"/>
</svg>
