<svg width="32" height="32" viewBox="0 0 32 32" fill="none" xmlns="http://www.w3.org/2000/svg">
<path d="M32 16.0158C31.9975 20.2543 30.3127 24.3185 27.3156 27.3156C24.3184 30.3126 20.2542 31.9975 16.0156 32C11.777 31.9975 7.71279 30.3126 4.71566 27.3156C1.71854 24.3185 0.0336752 20.2543 0.031189 16.0158C0.0336752 11.7774 1.71854 7.71318 4.71566 4.71611C7.71279 1.71905 11.777 0.0342244 16.0156 0.0317383C20.2542 0.0342244 24.3184 1.71905 27.3156 4.71611C30.3127 7.71318 31.9975 11.7774 32 16.0158Z" fill="#E22D88"/>
<path opacity="0.15" d="M28.2152 5.69298C25.2748 2.22089 20.8955 0 15.9844 0C7.16327 0 0 7.16314 0 15.9841C0 17.8296 0.31281 19.6126 0.907142 21.2704C9.91597 15.9216 19.0187 10.7291 28.2152 5.69298Z" fill="white"/>
<path d="M13.3746 20.387C14.3696 19.7605 15.4015 19.7236 16.4703 19.6499C19.05 19.4657 21.2244 17.365 21.5561 14.7853C21.8878 11.9476 20.2294 9.40475 17.4653 8.63083C14.1853 7.7095 10.7948 9.92069 10.3525 13.3112C10.3157 13.4955 10.3157 13.6797 10.2788 13.9008C10.242 14.2694 9.94715 14.5273 9.61546 14.5273C9.28378 14.4905 9.0258 14.2325 9.06265 13.8271C9.09951 12.3899 9.57861 11.0263 10.4631 9.88385C12.1215 7.70951 15.033 6.71447 17.6496 7.41468C20.3399 8.15174 22.4038 10.3998 22.7723 13.1269C23.2882 16.9597 20.5611 20.4607 16.6914 20.9029C16.1754 20.9766 15.6595 20.9398 15.1435 21.0504C13.5957 21.3083 12.7849 22.3034 12.5638 23.8143C12.5269 24.0355 12.4901 24.2934 12.4164 24.5146C12.3058 24.9199 12.011 25.1042 11.6424 24.9936C11.3107 24.9199 11.1633 24.5514 11.237 24.1829C11.495 23.0404 11.7161 21.898 11.9741 20.7555C12.4532 18.5075 12.9323 16.2594 13.4483 14.0114C13.522 13.7166 13.6325 13.4218 13.9642 13.3849C14.4065 13.3112 14.775 13.6797 14.6644 14.1588C14.259 16.0752 13.8168 17.9915 13.4114 19.9079C13.4114 20.0185 13.4114 20.1659 13.3746 20.387Z" fill="white" stroke="white"/>
<path d="M15.1069 23.8145C15.1069 23.4829 15.2543 23.188 15.4755 22.9669C15.6966 22.7458 16.0283 22.5984 16.3231 22.5984C16.6548 22.5984 16.9496 22.7458 17.1708 22.9669C17.3919 23.188 17.5393 23.5197 17.5393 23.8145C17.5393 24.4779 16.9496 25.0676 16.2863 25.0676C15.9546 25.0676 15.6597 24.9201 15.4386 24.699C15.2544 24.4411 15.1438 24.1462 15.1069 23.8145Z" fill="white" stroke="white"/>
</svg>
