<svg width="57" height="61" viewBox="0 0 57 61" fill="none" xmlns="http://www.w3.org/2000/svg">
<path d="M33.0725 54.7011C21.9542 57.6803 10.044 49.2839 6.47047 35.9472C2.89692 22.6106 9.01321 9.38403 20.1316 6.40487C31.25 3.42571 43.1601 11.8221 46.7337 25.1587C50.3072 38.4954 44.1909 51.7219 33.0725 54.7011Z" fill="#8D6EE8"/>
<path d="M20.0335 6.43122L24.4419 5.25L37.3828 53.5462L32.9745 54.7275L20.0335 6.43122Z" fill="#8D6EE8"/>
<path d="M36.8525 53.6884C25.7386 56.6663 13.8321 48.2689 10.2585 34.9323C6.68499 21.5956 12.7976 8.37002 23.9115 5.39206C35.0254 2.41411 46.9319 10.8115 50.5055 24.1481C54.079 37.4848 47.9664 50.7104 36.8525 53.6884Z" fill="#A288F0"/>
<path opacity="0.15" d="M32.5112 35.7469C26.9824 33.1196 22.4895 29.2139 20.0682 23.5416C18.3816 19.6214 15.8974 14.7034 15.6652 10.0774C17.892 7.90049 20.6362 6.26967 23.7033 5.44786C34.9327 2.43895 46.9453 10.8616 50.5273 24.2297C51.9891 29.685 51.8119 35.1581 50.3326 39.9266C44.1959 39.7799 38.1027 38.4101 32.5112 35.7469Z" fill="white"/>
<path opacity="0.9" d="M29.4637 27.2179L31.7037 35.578L37.7888 28.7971L29.4637 27.2179Z" fill="white"/>
<path d="M30.8485 35.8072L28.6084 27.4471L22.1882 32.9773L30.8485 35.8072Z" fill="white"/>
<path d="M28.3262 26.3939L25.6981 16.5857L22.1517 31.7877L28.3262 26.3939Z" fill="white"/>
<path opacity="0.9" d="M26.5532 16.3565L29.1813 26.1647L37.3748 27.7792L26.5532 16.3565Z" fill="white"/>
<path d="M32.9298 43.5748L31.1307 36.8604L22.5539 34.0787L32.9298 43.5748Z" fill="white"/>
<path opacity="0.9" d="M33.7852 43.3455L38.0229 29.9337L31.9861 36.6311L33.7852 43.3455Z" fill="white"/>
</svg>
