<svg width="32" height="32" viewBox="0 0 32 32" fill="none" xmlns="http://www.w3.org/2000/svg">
<path d="M32 16.0159C32 24.8368 24.8298 32 16 32C7.17026 32 0 24.8368 0 16.0159C0 7.19487 7.17026 0.0317383 16 0.0317383C24.8298 0.0317383 32 7.19487 32 16.0159Z" fill="#A288F0"/>
<path opacity="0.15" d="M28.3369 5.69298C25.3937 2.22089 21.0101 0 16.0942 0C7.26449 0 0.0942383 7.16314 0.0942383 15.9841C0.0942383 17.8296 0.407353 19.6126 1.00226 21.2704C10.0199 15.9216 19.1314 10.7291 28.3369 5.69298Z" fill="white"/>
<path opacity="0.95" d="M15.7984 14.3948V19.7289L10.3328 16.7048L15.7984 14.3948Z" fill="white" fill-opacity="0.9"/>
<path opacity="0.95" d="M16.4708 19.7289V14.3948L21.9364 16.6628L16.4708 19.7289Z" fill="white"/>
<path d="M16.4708 13.7653V7.50708L21.7682 15.9493L16.4708 13.7653Z" fill="white"/>
<path d="M15.7984 7.50708V13.7653L10.4169 15.9913L15.7984 7.50708Z" fill="white" fill-opacity="0.9"/>
<path d="M16.4708 24.7272V20.443L21.8944 17.4189L16.4708 24.7272Z" fill="white"/>
<path d="M15.7979 24.7272L10.3744 17.4189L15.7979 20.443V24.7272Z" fill="white" fill-opacity="0.9"/>
</svg>
