<svg width="55" height="58" viewBox="0 0 55 58" fill="none" xmlns="http://www.w3.org/2000/svg">
<path d="M31.7496 52.5131C21.076 55.3731 9.64224 47.3125 6.21164 34.5094C2.78104 21.7062 8.65268 9.00869 19.3263 6.14869C30 3.2887 41.4337 11.3492 44.8643 24.1524C48.2949 36.9556 42.4233 49.6531 31.7496 52.5131Z" fill="#028D78"/>
<path d="M19.2321 6.17389L23.4642 5.03992L35.8875 51.4043L31.6554 52.5383L19.2321 6.17389Z" fill="#028D78"/>
<path d="M35.3784 51.5408C24.709 54.3997 13.2788 46.3382 9.84819 33.535C6.41758 20.7318 12.2857 8.03522 22.955 5.17638C33.6244 2.31754 45.0546 10.379 48.4852 23.1822C51.9158 35.9854 46.0477 48.682 35.3784 51.5408Z" fill="#02BCA0"/>
<path opacity="0.15" d="M31.2107 34.317C25.9031 31.7948 21.5899 28.0454 19.2655 22.5999C17.6463 18.8365 15.2614 14.1153 15.0386 9.67433C17.1763 7.58446 19.8108 6.01889 22.7552 5.22994C33.5354 2.34139 45.0675 10.4271 48.5062 23.2605C49.9095 28.4976 49.7394 33.7518 48.3193 38.3295C42.4281 38.1887 36.5786 36.8737 31.2107 34.317Z" fill="white"/>
<path d="M25.79 25.6625C25.4882 24.536 25.2022 23.4688 24.9003 22.3423C22.4942 22.7964 20.147 23.2347 17.7249 23.6295C17.2324 21.7915 16.7558 20.0128 16.2633 18.1748C22.8696 17.3579 29.4011 16.4974 36.0074 15.6804C36.4046 17.1627 36.7859 18.5856 37.183 20.0679C34.7769 20.522 32.4296 20.9603 30.0075 21.3551C30.2935 22.4223 30.5636 23.4302 30.8495 24.4974C36.653 23.5143 41.275 23.5468 41.5928 24.7325C41.9105 25.9183 37.8921 28.1389 32.3429 30.0706C33.2484 33.4501 34.1381 36.7704 35.0436 40.1499C33.3972 40.8452 31.8098 41.5247 30.1634 42.2201C29.2102 38.6627 28.257 35.1053 27.3197 31.6072C21.6275 33.0054 16.9736 32.8543 16.5288 31.1942C16.1429 29.5183 20.1295 27.1792 25.79 25.6625ZM27.1404 30.7021C27.2583 30.6705 28.0407 30.5244 29.6758 30.0227C30.973 29.6751 31.9005 29.3631 32.1953 29.2841C37.1278 27.6447 40.679 25.8035 40.4248 24.8549C40.1706 23.9062 36.1428 23.9687 31.0197 24.8966C31.3375 26.0824 31.6393 27.2089 31.957 28.3947C31.6033 28.4895 30.6757 28.8016 29.3785 29.1492C27.8455 29.56 27.0041 29.7219 26.8862 29.7535C26.5526 28.5084 26.2189 27.2633 25.8853 26.0182C20.8734 27.3611 17.413 29.3051 17.7466 30.5502C18.0371 31.8704 22.0808 31.8672 27.1404 30.7021Z" fill="white"/>
</svg>
