<svg width="32" height="32" viewBox="0 0 32 32" fill="none" xmlns="http://www.w3.org/2000/svg">
<path d="M32 16.0158C31.9975 20.2543 30.3127 24.3185 27.3156 27.3156C24.3184 30.3126 20.2542 31.9975 16.0156 32C11.777 31.9975 7.71279 30.3126 4.71566 27.3156C1.71854 24.3185 0.0336752 20.2543 0.031189 16.0158C0.0336752 11.7774 1.71854 7.71318 4.71566 4.71611C7.71279 1.71905 11.777 0.0342244 16.0156 0.0317383C20.2542 0.0342244 24.3184 1.71905 27.3156 4.71611C30.3127 7.71318 31.9975 11.7774 32 16.0158Z" fill="#02BCA0"/>
<path opacity="0.15" d="M28.2152 5.69298C25.2748 2.22089 20.8955 0 15.9844 0C7.16327 0 0 7.16314 0 15.9841C0 17.8296 0.31281 19.6126 0.907142 21.2704C9.91597 15.9216 19.0187 10.7291 28.2152 5.69298Z" fill="white"/>
<path d="M17.7617 13.1202V10.7845H23.1685V7.19446H8.50532V10.7845H13.9121V13.1202C9.54342 13.3364 6.2561 14.2015 6.2561 15.2396C6.2561 16.2776 9.54342 17.1427 13.9121 17.359V24.8851H17.805V17.3157C22.1736 17.0995 25.4609 16.2344 25.4609 15.1963C25.4177 14.2015 22.1304 13.3364 17.7617 13.1202ZM17.7617 16.7102C17.632 16.7102 17.0697 16.7534 15.8153 16.7534C14.8204 16.7534 14.0851 16.7102 13.8688 16.7102C10.0192 16.5372 7.12119 15.8451 7.12119 15.0666C7.12119 14.2447 10.0192 13.5959 13.8688 13.4229V16.0614C14.1284 16.0614 14.8637 16.1046 15.8585 16.1046C17.0696 16.1046 17.6752 16.0614 17.7617 16.0614V13.4229C21.6113 13.5959 24.5094 14.288 24.5094 15.0666C24.5094 15.8451 21.6113 16.5372 17.7617 16.7102Z" fill="white"/>
</svg>
