<svg width="32" height="32" viewBox="0 0 32 32" fill="none" xmlns="http://www.w3.org/2000/svg">
<path d="M32.0001 16.0158C31.9976 20.2543 30.3127 24.3185 27.3156 27.3156C24.3185 30.3126 20.2543 31.9975 16.0157 32C11.7772 31.9975 7.71293 30.3126 4.71582 27.3156C1.71872 24.3185 0.0338583 20.2543 0.0313721 16.0158C0.0338583 11.7774 1.71872 7.71318 4.71582 4.71611C7.71293 1.71905 11.7772 0.0342244 16.0157 0.0317383C20.2543 0.0342244 24.3185 1.71905 27.3156 4.71611C30.3127 7.71318 31.9976 11.7774 32.0001 16.0158Z" fill="#FBB504"/>
<path opacity="0.15" d="M28.215 5.69298C25.2747 2.22089 20.8954 0 15.9843 0C7.16324 0 0 7.16314 0 15.9841C0 17.8296 0.312808 19.6126 0.907138 21.2704C9.91593 15.9216 19.0186 10.7291 28.215 5.69298Z" fill="white"/>
<path d="M21.3153 16.0008C20.913 15.7154 20.4608 15.5093 19.9825 15.3935C20.3418 15.1927 20.6622 14.9282 20.9284 14.6126C21.1805 14.2075 21.3282 13.7452 21.3583 13.2678C21.4136 12.8154 21.356 12.3563 21.1908 11.9321C21.0256 11.5078 20.7581 11.1319 20.4124 10.8385C19.6385 10.2311 18.7356 10.0142 17.4888 9.92746V7.19446H15.855V9.88409H14.6082V7.19446H12.9959V9.88409H9.77127V11.6193H10.7171C11.0396 11.5915 11.3609 11.6841 11.62 11.8796C11.7082 11.9872 11.773 12.1124 11.81 12.2469C11.8471 12.3815 11.8556 12.5224 11.835 12.6605V19.6015C11.8376 19.7896 11.777 19.9731 11.663 20.122C11.534 20.2522 11.4051 20.2955 11.0611 20.2955H10.0722L9.72827 22.3345H12.9529V25.0241H14.5867V22.3345H15.8335V25.0241H17.4673V22.2911C17.8973 22.2477 18.2842 22.2477 18.4992 22.2043C19.398 22.1394 20.2612 21.824 20.9929 21.2933C21.9817 20.5992 22.1967 19.4713 22.2397 18.3868C22.2612 17.1721 21.8313 16.3912 21.3153 16.0008ZM14.6082 11.7495C14.6082 11.7495 15.1241 11.7061 15.64 11.7061C16.1919 11.7034 16.7415 11.7764 17.2738 11.923C17.5754 11.9951 17.8447 12.1664 18.0393 12.4098C18.2339 12.6533 18.3427 12.9551 18.3487 13.2678C18.3621 13.5214 18.3048 13.7738 18.1832 13.9962C18.0616 14.2186 17.8806 14.4021 17.6608 14.5259C17.1378 14.7865 16.5667 14.9342 15.984 14.9597C15.5257 14.984 15.0665 14.984 14.6082 14.9597V11.7495ZM18.2627 19.7316C17.6806 19.997 17.0524 20.1444 16.4139 20.1654C15.683 20.2088 14.6082 20.2088 14.6082 20.2088V16.6515C14.6082 16.6515 15.64 16.6081 16.4569 16.6515C17.0819 16.6699 17.6966 16.8175 18.2627 17.0853C18.5073 17.2016 18.7141 17.3857 18.8588 17.6162C19.0034 17.8467 19.08 18.1139 19.0796 18.3868C19.0948 18.6681 19.0248 18.9474 18.8788 19.1876C18.7329 19.4278 18.518 19.6176 18.2627 19.7316Z" fill="white"/>
</svg>
