<svg width="37" height="39" viewBox="0 0 37 39" fill="none" xmlns="http://www.w3.org/2000/svg">
<path d="M23.5804 34.3618C30.6961 32.4552 34.6105 23.9902 32.3235 15.4547C30.0364 6.91926 22.4139 1.54556 15.2982 3.45222C8.1824 5.35889 4.26797 13.8239 6.55504 22.3593C8.84211 30.8948 16.4646 36.2685 23.5804 34.3618Z" fill="#B72970"/>
<path d="M15.3606 3.43555L12.5393 4.19153L20.8215 35.1011L23.6428 34.3451L15.3606 3.43555Z" fill="#CF3009"/>
<path d="M21.1612 35.0101C28.2741 33.1042 32.1862 24.6398 29.8991 16.1044C27.6121 7.56891 19.9919 2.19458 12.879 4.10047C5.76613 6.00636 1.85404 14.4707 4.1411 23.0062C6.42817 31.5417 14.0483 36.916 21.1612 35.0101Z" fill="#E22D88"/>
<path opacity="0.15" d="M17.8261 23.6767C20.0498 20.4513 21.2902 16.8488 20.817 12.9301C20.4974 10.2176 20.3005 6.6968 18.9489 4.05854C17.0181 3.56453 14.9752 3.5388 13.0123 4.06476C5.82545 5.99047 1.86262 14.5028 4.15508 23.0584C5.09061 26.5498 6.94017 29.5266 9.28602 31.6962C12.6404 29.6512 15.5792 26.9421 17.8261 23.6767Z" fill="white"/>
<path d="M16.3399 24.1006C16.8833 23.3366 17.606 23.1017 18.3183 22.8284C20.0919 22.1882 21.0916 19.7763 20.6413 17.2582C20.1641 14.4999 18.3384 12.4328 16.2126 12.1778C13.672 11.9102 11.8656 14.6619 12.4071 17.939C12.4586 18.1314 12.4649 18.2946 12.5165 18.4869C12.5743 18.8425 12.472 19.1586 12.2174 19.1855C11.9628 19.2125 11.7161 18.99 11.6582 18.6344C11.3324 17.2787 11.3309 15.8772 11.6356 14.6411C12.2308 12.2551 14.0426 10.7801 16.0676 10.9385C18.1378 11.1259 20.146 12.8967 21.1055 15.3609C22.4584 18.8741 21.4253 22.6968 18.8163 23.8494C18.4776 23.9814 18.0937 24.0842 17.7653 24.2547C16.7555 24.8139 16.4444 25.8868 16.6513 27.3569C16.6783 27.5971 16.7052 27.8372 16.7219 28.0389C16.7551 28.4423 16.587 28.6523 16.2871 28.6502C16.0571 28.6294 15.835 28.359 15.8018 27.9556C15.6876 26.8317 15.5735 25.7078 15.4594 24.5839C15.2415 22.3746 15.0236 20.1653 14.7605 17.9269C14.7129 17.6098 14.7558 17.3509 14.9795 17.2085C15.273 17.0474 15.6204 17.3666 15.664 17.8085C15.8692 19.6913 16.0396 21.5836 16.2551 23.5049C16.2924 23.7835 16.3233 23.8989 16.3399 24.1006Z" fill="white" stroke="white"/>
<path d="M18.4727 27.0338C18.3903 26.7261 18.4125 26.3903 18.5006 26.1605C18.5886 25.9308 18.7917 25.7114 19.0011 25.6553C19.2454 25.5899 19.4858 25.6492 19.6872 25.8426C19.9236 26.0266 20.0655 26.2772 20.1829 26.5756C20.3478 27.1911 20.0836 27.8803 19.6299 28.0019C19.3856 28.0674 19.1349 27.9696 18.9438 27.8147C18.732 27.5828 18.5552 27.3416 18.4727 27.0338Z" fill="white" stroke="white"/>
</svg>
