<svg width="36" height="38" viewBox="0 0 36 38" fill="none" xmlns="http://www.w3.org/2000/svg">
<path d="M4.44449e-05 17.9947C-0.00119087 22.1614 1.44321 26.1996 4.08686 29.4203C6.73051 32.641 10.4097 34.8448 14.4968 35.6558C18.5838 36.4667 22.8257 35.8346 26.4988 33.8673C30.1718 31.8999 33.0486 28.7192 34.6384 24.8676C36.2281 21.016 36.4324 16.7322 35.2164 12.7468C34.0004 8.76147 31.4393 5.32143 27.9701 3.01347C24.5009 0.705518 20.3385 -0.327371 16.1928 0.0909855C12.0471 0.509342 8.17489 2.35303 5.23675 5.30757C3.57169 6.97348 2.25198 8.95177 1.35333 11.1289C0.454685 13.3061 -0.00520543 15.6393 4.44449e-05 17.9947Z" fill="url(#paint0_radial_277_83)"/>
<path fill-rule="evenodd" clip-rule="evenodd" d="M6.09886 7.6333C5.77547 7.6333 5.51331 7.89546 5.51331 8.21886V11.2666H3.17111C2.52432 11.2666 2 11.7909 2 12.4377V27.0513C2 27.6981 2.52432 28.2224 3.17111 28.2224H5.51331V31.2703C5.51331 31.5937 5.77547 31.8559 6.09886 31.8559C6.42226 31.8559 6.68442 31.5937 6.68442 31.2703V28.2224H9.02666C9.67344 28.2224 10.1978 27.6981 10.1978 27.0513V12.4377C10.1978 11.7909 9.67344 11.2666 9.02666 11.2666H6.68442V8.21886C6.68442 7.89546 6.42226 7.6333 6.09886 7.6333Z" fill="url(#paint1_linear_277_83)"/>
<path fill-rule="evenodd" clip-rule="evenodd" d="M26.316 4.58555C26.316 4.26216 26.5782 4 26.9016 4C27.225 4 27.4872 4.26216 27.4872 4.58555V7.63329H29.8294C30.4762 7.63329 31.0005 8.15761 31.0005 8.8044V25.8403C31.0005 26.4871 30.4762 27.0114 29.8294 27.0114H27.4872V30.0592C27.4872 30.3826 27.225 30.6448 26.9016 30.6448C26.5782 30.6448 26.316 30.3826 26.316 30.0592V27.0114H23.9738C23.3271 27.0114 22.8027 26.4871 22.8027 25.8403V8.8044C22.8027 8.15761 23.3271 7.63329 23.9738 7.63329H26.316V4.58555Z" fill="url(#paint2_linear_277_83)"/>
<path fill-rule="evenodd" clip-rule="evenodd" d="M16.4997 11.2666C16.1763 11.2666 15.9142 11.5288 15.9142 11.8522V14.8999H13.572C12.9252 14.8999 12.4009 15.4242 12.4009 16.071V33.1069C12.4009 33.7537 12.9252 34.278 13.572 34.278H15.9142V37.3258C15.9142 37.6492 16.1763 37.9114 16.4997 37.9114C16.8231 37.9114 17.0853 37.6492 17.0853 37.3258V34.278H19.4275C20.0743 34.278 20.5986 33.7537 20.5986 33.1069V16.071C20.5986 15.4242 20.0743 14.8999 19.4275 14.8999H17.0853V11.8522C17.0853 11.5288 16.8231 11.2666 16.4997 11.2666Z" fill="url(#paint3_linear_277_83)"/>
<defs>
<radialGradient id="paint0_radial_277_83" cx="0" cy="0" r="1" gradientUnits="userSpaceOnUse" gradientTransform="translate(18 18) rotate(90) scale(18)">
<stop stop-color="#CDFBF4" stop-opacity="0"/>
<stop offset="1" stop-color="#CDFBF4"/>
</radialGradient>
<linearGradient id="paint1_linear_277_83" x1="3.29006" y1="11.4543" x2="13.6606" y2="14.9641" gradientUnits="userSpaceOnUse">
<stop stop-color="#03C1FB"/>
<stop offset="1" stop-color="#03FBB5"/>
</linearGradient>
<linearGradient id="paint2_linear_277_83" x1="24.0928" y1="8.20315" x2="34.6517" y2="11.4518" gradientUnits="userSpaceOnUse">
<stop stop-color="#03C1FB"/>
<stop offset="1" stop-color="#03FBB5"/>
</linearGradient>
<linearGradient id="paint3_linear_277_83" x1="13.6077" y1="15.149" x2="24.204" y2="18.4092" gradientUnits="userSpaceOnUse">
<stop stop-color="#C92016"/>
<stop offset="1" stop-color="#F06543"/>
</linearGradient>
</defs>
</svg>
