<svg width="36" height="36" viewBox="0 0 36 36" fill="none" xmlns="http://www.w3.org/2000/svg">
<path d="M4.44449e-05 17.9947C-0.00119087 22.1614 1.44321 26.1996 4.08686 29.4203C6.73051 32.641 10.4097 34.8448 14.4968 35.6558C18.5838 36.4667 22.8257 35.8346 26.4988 33.8673C30.1718 31.8999 33.0486 28.7192 34.6384 24.8676C36.2281 21.016 36.4324 16.7322 35.2164 12.7468C34.0004 8.76147 31.4393 5.32143 27.9701 3.01347C24.5009 0.705518 20.3385 -0.327371 16.1928 0.0909855C12.0471 0.509342 8.17489 2.35303 5.23675 5.30757C3.57169 6.97348 2.25198 8.95177 1.35333 11.1289C0.454685 13.3061 -0.00520543 15.6393 4.44449e-05 17.9947Z" fill="url(#paint0_radial_277_33)"/>
<g filter="url(#filter0_d_277_33)">
<path d="M12.7622 3.7583H13.9518C14.6085 3.7583 15.1414 4.29123 15.1414 4.94788V8.51663C15.1414 9.17328 14.6085 9.70621 13.9518 9.70621H12.7622C12.1056 9.70621 11.5727 9.17328 11.5727 8.51663V4.94788C11.5727 4.29123 12.1056 3.7583 12.7622 3.7583ZM18.7101 3.7583H19.8997C20.5564 3.7583 21.0893 4.29123 21.0893 4.94788V8.51663C21.0893 9.17328 20.5564 9.70621 19.8997 9.70621H18.7101C18.0535 9.70621 17.5206 9.17328 17.5206 8.51663V4.94788C17.5206 4.29123 18.0535 3.7583 18.7101 3.7583ZM12.7622 28.7395H13.9518C14.6085 28.7395 15.1414 29.2724 15.1414 29.9291V33.4978C15.1414 34.1545 14.6085 34.6874 13.9518 34.6874H12.7622C12.1056 34.6874 11.5727 34.1545 11.5727 33.4978V29.9291C11.5727 29.2724 12.1056 28.7395 12.7622 28.7395ZM18.7101 28.7395H19.8997C20.5564 28.7395 21.0893 29.2724 21.0893 29.9291V33.4978C21.0893 34.1545 20.5564 34.6874 19.8997 34.6874H18.7101C18.0535 34.6874 17.5206 34.1545 17.5206 33.4978V29.9291C17.5206 29.2724 18.0535 28.7395 18.7101 28.7395ZM8.00391 29.9291V8.51663C8.00391 7.85998 8.53684 7.32705 9.19349 7.32705H17.7573C20.6242 7.32705 22.794 7.8802 24.2762 8.98651C25.7584 10.0928 26.4971 11.7142 26.4971 13.8471C26.4971 15.0129 26.1997 16.0407 25.6097 16.9282C25.0149 17.8156 24.1882 18.4663 23.1283 18.8803C24.3369 19.1872 25.2885 19.7998 25.9856 20.7301C26.6839 21.6532 27.0372 22.7821 27.0372 24.1251C27.0372 26.4115 26.3128 28.1447 24.8627 29.32C23.4126 30.4953 21.3498 31.0949 18.6685 31.1187H9.19349C8.53684 31.1187 8.00391 30.5857 8.00391 29.9291ZM12.7622 16.8437H17.9524C20.4065 16.8021 21.6377 15.8635 21.6377 13.9352C21.6377 12.8574 21.326 12.0806 20.7039 11.6072C20.0817 11.1337 19.1003 10.8958 17.7573 10.8958H12.7622V16.8437ZM12.7622 20.4124V27.5499H18.5246C19.6678 27.5499 22.2789 26.992 22.2789 24.4463C22.2789 21.9006 20.9501 20.4446 18.7101 20.4124H12.7622Z" fill="url(#paint1_linear_277_33)"/>
</g>
<defs>
<filter id="filter0_d_277_33" x="7.13876" y="2.89315" width="21.1962" height="33.0921" filterUnits="userSpaceOnUse" color-interpolation-filters="sRGB">
<feFlood flood-opacity="0" result="BackgroundImageFix"/>
<feColorMatrix in="SourceAlpha" type="matrix" values="0 0 0 0 0 0 0 0 0 0 0 0 0 0 0 0 0 0 127 0" result="hardAlpha"/>
<feOffset dx="0.216288" dy="0.216288"/>
<feGaussianBlur stdDeviation="0.540719"/>
<feComposite in2="hardAlpha" operator="out"/>
<feColorMatrix type="matrix" values="0 0 0 0 0 0 0 0 0 0 0 0 0 0 0 0 0 0 0.1 0"/>
<feBlend mode="normal" in2="BackgroundImageFix" result="effect1_dropShadow_277_33"/>
<feBlend mode="normal" in="SourceGraphic" in2="effect1_dropShadow_277_33" result="shape"/>
</filter>
<radialGradient id="paint0_radial_277_33" cx="0" cy="0" r="1" gradientUnits="userSpaceOnUse" gradientTransform="translate(18 18) rotate(90) scale(18)">
<stop stop-color="#CCEFFF" stop-opacity="0"/>
<stop offset="1" stop-color="#CCEFFF"/>
</radialGradient>
<linearGradient id="paint1_linear_277_33" x1="10.4059" y1="2.70796" x2="16.8456" y2="29.0545" gradientUnits="userSpaceOnUse">
<stop stop-color="#0356FB"/>
<stop offset="1" stop-color="#0394FB"/>
</linearGradient>
</defs>
</svg>
