<svg width="36" height="36" viewBox="0 0 36 36" fill="none" xmlns="http://www.w3.org/2000/svg">
<path d="M4.44449e-05 17.9947C-0.00119087 22.1614 1.44321 26.1996 4.08686 29.4203C6.73051 32.641 10.4097 34.8448 14.4968 35.6558C18.5838 36.4667 22.8257 35.8346 26.4988 33.8673C30.1718 31.8999 33.0486 28.7192 34.6384 24.8676C36.2281 21.016 36.4324 16.7322 35.2164 12.7468C34.0004 8.76147 31.4393 5.32143 27.9701 3.01347C24.5009 0.705518 20.3385 -0.327371 16.1928 0.0909855C12.0471 0.509342 8.17489 2.35303 5.23675 5.30757C3.57169 6.97348 2.25198 8.95177 1.35333 11.1289C0.454685 13.3061 -0.00520543 15.6393 4.44449e-05 17.9947Z" fill="url(#paint0_radial_0_2717)"/>
<path d="M31.9785 4C31.9785 4 23 3.97852 16 10.9785C15.6768 11.3017 15.3954 11.6535 15.1406 12.0176C13.8995 11.9183 11.9998 11.9508 11.0273 12.9238C8.75734 15.1938 8 18.9785 8 18.9785L13 18.2637V19.9785L16 22.9785H17.7148L17 27.9785C17 27.9785 20.7847 27.2212 23.0547 24.9512C24.0278 23.9788 24.0602 22.079 23.9609 20.8379C24.325 20.5831 24.6768 20.3017 25 19.9785C32 12.9785 31.9785 4 31.9785 4ZM24 9.97852C25.105 9.97852 26 10.8735 26 11.9785C26 13.0835 25.105 13.9785 24 13.9785C22.895 13.9785 22 13.0835 22 11.9785C22 10.8735 22.895 9.97852 24 9.97852Z" fill="url(#paint1_linear_0_2717)"/>
<path d="M11.1621 21.5625C11.4591 21.2655 11.8192 21.0746 12.1992 20.9746L12.6563 21.4336C12.5923 21.4796 12.5209 21.5065 12.4629 21.5645C11.4869 22.5395 11.9746 24.002 11.9746 24.002C11.9746 24.002 13.4371 24.4887 14.4121 23.5137C14.4701 23.4567 14.498 23.3824 14.543 23.3184L15 23.7754C14.9 24.1554 14.7091 24.5175 14.4121 24.8145C13.0281 26.1985 10.0137 25.9629 10.0137 25.9629C10.0137 25.9629 9.79611 22.9285 11.1621 21.5625Z" fill="url(#paint2_linear_0_2717)"/>
<defs>
<radialGradient id="paint0_radial_0_2717" cx="0" cy="0" r="1" gradientUnits="userSpaceOnUse" gradientTransform="translate(18 18) rotate(90) scale(18)">
<stop stop-color="#E6EEFF" stop-opacity="0"/>
<stop offset="1" stop-color="#E6EEFF"/>
</radialGradient>
<linearGradient id="paint1_linear_0_2717" x1="7.98235" y1="15.9944" x2="32.0043" y2="15.9944" gradientUnits="userSpaceOnUse">
<stop stop-color="#0356FB"/>
<stop offset="1" stop-color="#0394FB"/>
</linearGradient>
<linearGradient id="paint2_linear_0_2717" x1="10.7324" y1="21.7087" x2="14.2541" y2="25.2266" gradientUnits="userSpaceOnUse">
<stop stop-color="#F06543"/>
<stop offset="1" stop-color="#FBB504"/>
</linearGradient>
</defs>
</svg>
