<svg width="83" height="87" viewBox="0 0 83 87" fill="none" xmlns="http://www.w3.org/2000/svg">
<path d="M34.4915 78.7696C50.5019 83.0596 67.6525 70.9688 72.7984 51.764C77.9443 32.5593 69.1369 13.513 53.1264 9.22304C37.1159 4.93305 19.9653 17.0239 14.8194 36.2286C9.67353 55.4334 18.481 74.4796 34.4915 78.7696Z" fill="#551DFC"/>
<path d="M34.4915 78.7696C50.5019 83.0596 67.6525 70.9688 72.7984 51.764C77.9443 32.5593 69.1369 13.513 53.1264 9.22304C37.1159 4.93305 19.9653 17.0239 14.8194 36.2286C9.67353 55.4334 18.481 74.4796 34.4915 78.7696Z" fill="url(#paint0_linear_0_2375)"/>
<path d="M53.2677 9.26089L46.9196 7.55994L28.2847 77.1065L34.6327 78.8075L53.2677 9.26089Z" fill="#551DFC"/>
<path d="M53.2677 9.26089L46.9196 7.55994L28.2847 77.1065L34.6327 78.8075L53.2677 9.26089Z" fill="url(#paint1_linear_0_2375)"/>
<g style="mix-blend-mode:multiply" opacity="0.2">
<path d="M34.4915 78.7696C50.5019 83.0596 67.6525 70.9688 72.7984 51.764C77.9443 32.5593 69.1369 13.513 53.1264 9.22304C37.1159 4.93305 19.9653 17.0239 14.8194 36.2286C9.67353 55.4334 18.481 74.4796 34.4915 78.7696Z" fill="#551DFC"/>
</g>
<g style="mix-blend-mode:multiply" opacity="0.2">
<path d="M53.2677 9.26089L46.9196 7.55994L28.2847 77.1065L34.6327 78.8075L53.2677 9.26089Z" fill="#551DFC"/>
</g>
<path d="M29.0484 77.3112C45.0523 81.5995 62.1977 69.5073 67.3436 50.3025C72.4895 31.0977 63.6873 12.0528 47.6833 7.76457C31.6794 3.47632 14.534 15.5685 9.38808 34.7733C4.24218 53.9781 13.0444 73.023 29.0484 77.3112Z" fill="#774AFD"/>
<path d="M29.0484 77.3112C45.0523 81.5995 62.1977 69.5073 67.3436 50.3025C72.4895 31.0977 63.6873 12.0528 47.6833 7.76457C31.6794 3.47632 14.534 15.5685 9.38808 34.7733C4.24218 53.9781 13.0444 73.023 29.0484 77.3112Z" fill="url(#paint2_linear_0_2375)"/>
<path opacity="0.15" d="M35.2998 51.4756C43.2613 47.6923 49.7311 42.068 53.2177 33.8999C55.6465 28.2548 59.2237 21.1729 59.558 14.5115C56.3515 11.3767 52.3997 9.02833 47.9832 7.84491C31.8128 3.51208 14.5147 15.6407 9.35663 34.8907C7.2517 42.7464 7.50674 50.6277 9.637 57.4943C18.4738 57.2831 27.2481 55.3105 35.2998 51.4756Z" fill="white"/>
<path d="M26.891 47.189C27.1035 47.0022 27.427 47.0077 27.6544 47.0686L50.8496 53.2837C51.3044 53.4056 51.2935 54.0526 50.909 54.2746L44.9189 58.4378C44.7063 58.6246 44.3829 58.6191 44.1555 58.5582L20.9603 52.3431C20.5055 52.2212 20.5164 51.5742 20.9009 51.3522L26.891 47.189Z" fill="white"/>
<path d="M26.891 47.189C27.1035 47.0022 27.427 47.0077 27.6544 47.0686L50.8496 53.2837C51.3044 53.4056 51.2935 54.0526 50.909 54.2746L44.9189 58.4378C44.7063 58.6246 44.3829 58.6191 44.1555 58.5582L20.9603 52.3431C20.5055 52.2212 20.5164 51.5742 20.9009 51.3522L26.891 47.189Z" fill="white"/>
<path d="M32.2124 27.3291C32.425 27.1423 32.7484 27.1478 32.9759 27.2087L56.171 33.4238C56.6258 33.5457 56.6149 34.1927 56.2304 34.4146L50.2403 38.5779C50.0278 38.7647 49.7043 38.7592 49.4769 38.6983L26.2818 32.4832C25.827 32.3613 25.8379 31.7143 26.2223 31.4924L32.2124 27.3291Z" fill="white"/>
<path d="M49.1841 42.5196C49.0935 42.2516 48.8106 42.0945 48.5832 42.0336L25.3881 35.8185C24.9333 35.6966 24.6192 36.2624 24.8412 36.6468L27.9472 43.2473C28.0378 43.5154 28.3207 43.6724 28.5481 43.7334L51.7432 49.9485C52.198 50.0703 52.5121 49.5045 52.2901 49.1201L49.1841 42.5196Z" fill="white"/>
<path d="M49.1841 42.5196C49.0935 42.2516 48.8106 42.0945 48.5832 42.0336L25.3881 35.8185C24.9333 35.6966 24.6192 36.2624 24.8412 36.6468L27.9472 43.2473C28.0378 43.5154 28.3207 43.6724 28.5481 43.7334L51.7432 49.9485C52.198 50.0703 52.5121 49.5045 52.2901 49.1201L49.1841 42.5196Z" fill="white"/>
<defs>
<linearGradient id="paint0_linear_0_2375" x1="25.1255" y1="10.9593" x2="65.9919" y2="40.0089" gradientUnits="userSpaceOnUse">
<stop stop-color="#6855E0"/>
<stop offset="1" stop-color="#12898A"/>
</linearGradient>
<linearGradient id="paint1_linear_0_2375" x1="44.971" y1="16.2769" x2="50.5577" y2="18.0205" gradientUnits="userSpaceOnUse">
<stop stop-color="#6855E0"/>
<stop offset="1" stop-color="#12898A"/>
</linearGradient>
<linearGradient id="paint2_linear_0_2375" x1="19.6928" y1="9.50365" x2="60.5486" y2="38.5375" gradientUnits="userSpaceOnUse">
<stop stop-color="#6855E0"/>
<stop offset="1" stop-color="#12898A"/>
</linearGradient>
</defs>
</svg>
