<svg width="65" height="65" viewBox="0 0 65 65" fill="none" xmlns="http://www.w3.org/2000/svg">
<g style="mix-blend-mode:multiply">
<path d="M12.0599 60.9437C11.9069 61.5885 11.962 62.2652 12.2172 62.8768C12.4725 63.4884 12.9149 64.0035 13.4809 64.3482C14.0469 64.693 14.7076 64.8497 15.3682 64.7959C16.0288 64.7421 16.6555 64.4805 17.1583 64.0488L34.9386 48.0627C35.3212 47.7154 35.7848 47.4695 36.2869 47.3475C36.789 47.2255 37.3137 47.2313 37.813 47.3644L60.963 53.4151C61.6058 53.5637 62.2791 53.506 62.8872 53.2501C63.4953 52.9943 64.0074 52.5533 64.3506 51.9899C64.6938 51.4265 64.8507 50.7693 64.7991 50.1116C64.7474 49.454 64.4898 48.8293 64.0628 48.3264L48.0575 30.5045C47.7153 30.1204 47.4729 29.658 47.3514 29.1582C47.23 28.6583 47.2333 28.1362 47.3611 27.6379L53.4075 4.49921C53.5562 3.85648 53.4985 3.18325 53.2427 2.57519C52.9868 1.96713 52.5459 1.45515 51.9824 1.112C51.419 0.768843 50.7617 0.611984 50.104 0.66367C49.4462 0.715358 48.8215 0.972968 48.3186 1.39993L30.5306 17.3878C30.1458 17.7315 29.6822 17.975 29.1808 18.0968C28.6794 18.2186 28.1558 18.2149 27.6562 18.0861L4.51361 12.066C3.86992 11.9146 3.19484 11.9704 2.58472 12.2254C1.97459 12.4804 1.4606 12.9215 1.11608 13.4859C0.771552 14.0503 0.61411 14.7091 0.666208 15.3682C0.718306 16.0274 0.97728 16.6532 1.40619 17.1565L17.3947 34.9421C17.7368 35.3262 17.9793 35.7886 18.1007 36.2885C18.2221 36.7883 18.2188 37.3104 18.091 37.8087L12.0599 60.9437Z" fill="url(#paint0_linear_0_2387)"/>
</g>
<defs>
<linearGradient id="paint0_linear_0_2387" x1="9.58278" y1="18.6492" x2="55.656" y2="46.7064" gradientUnits="userSpaceOnUse">
<stop stop-color="#F06543"/>
<stop offset="1" stop-color="#FBB504"/>
</linearGradient>
</defs>
</svg>
